<?xml version="1.0" encoding="UTF-8" standalone="no"?>
<!DOCTYPE svg PUBLIC "-//W3C//DTD SVG 1.1//EN"
 "http://www.w3.org/Graphics/SVG/1.1/DTD/svg11.dtd">
<!-- Generated by graphviz version 2.26.3 (20100126.1600)
 -->
<!-- Title: G Pages: 1 -->
<svg width="118pt" height="344pt"
 viewBox="0.00 0.00 118.00 344.00" xmlns="http://www.w3.org/2000/svg" xmlns:xlink="http://www.w3.org/1999/xlink">
<g id="graph1" class="graph" transform="scale(1 1) rotate(0) translate(4 340)">
<title>G</title>
<polygon fill="white" stroke="white" points="-4,5 -4,-340 115,-340 115,5 -4,5"/>
<g id="graph2" class="cluster"><title>cluster_Global</title>
<polyline fill="none" stroke="gray" points="20,-8 90,-8 "/>
<path fill="none" stroke="gray" d="M90,-8C96,-8 102,-14 102,-20"/>
<polyline fill="none" stroke="gray" points="102,-20 102,-316 "/>
<path fill="none" stroke="gray" d="M102,-316C102,-322 96,-328 90,-328"/>
<polyline fill="none" stroke="gray" points="90,-328 20,-328 "/>
<path fill="none" stroke="gray" d="M20,-328C14,-328 8,-322 8,-316"/>
<polyline fill="none" stroke="gray" points="8,-316 8,-20 "/>
<path fill="none" stroke="gray" d="M8,-20C8,-14 14,-8 20,-8"/>
<text text-anchor="middle" x="55" y="-314.1" font-family="Times Roman,serif" font-size="11.00" fill="gray">Global</text>
</g>
<g id="graph3" class="cluster"><title>cluster_\ChessNS</title>
<polyline fill="none" stroke="gray" points="30,-62 80,-62 "/>
<path fill="none" stroke="gray" d="M80,-62C86,-62 92,-68 92,-74"/>
<polyline fill="none" stroke="gray" points="92,-74 92,-286 "/>
<path fill="none" stroke="gray" d="M92,-286C92,-292 86,-298 80,-298"/>
<polyline fill="none" stroke="gray" points="80,-298 30,-298 "/>
<path fill="none" stroke="gray" d="M30,-298C24,-298 18,-292 18,-286"/>
<polyline fill="none" stroke="gray" points="18,-286 18,-74 "/>
<path fill="none" stroke="gray" d="M18,-74C18,-68 24,-62 30,-62"/>
<text text-anchor="middle" x="55" y="-284.1" font-family="Times Roman,serif" font-size="11.00" fill="gray">ChessNS</text>
</g>
<!-- \\ChessNS\\Board -->
<g id="node3" class="node"><title>\\ChessNS\\Board</title>
<polygon fill="none" stroke="black" points="82,-268 28,-268 28,-232 82,-232 82,-268"/>
<text text-anchor="middle" x="55" y="-247.1" font-family="Courier,monospace" font-size="11.00">Board</text>
</g>
<!-- \\ChessNS\\Units -->
<g id="node4" class="node"><title>\\ChessNS\\Units</title>
<polygon fill="none" stroke="black" points="82,-214 28,-214 28,-178 82,-178 82,-214"/>
<text text-anchor="middle" x="55" y="-193.1" font-family="Courier,monospace" font-size="11.00">Units</text>
</g>
<!-- \\ChessNS\\Game -->
<g id="node5" class="node"><title>\\ChessNS\\Game</title>
<polygon fill="none" stroke="black" points="82,-160 28,-160 28,-124 82,-124 82,-160"/>
<text text-anchor="middle" x="55" y="-139.1" font-family="Courier,monospace" font-size="11.00">Game</text>
</g>
<!-- \\ChessNS\\Player -->
<g id="node6" class="node"><title>\\ChessNS\\Player</title>
<polygon fill="none" stroke="black" points="83,-106 27,-106 27,-70 83,-70 83,-106"/>
<text text-anchor="middle" x="55" y="-85.1" font-family="Courier,monospace" font-size="11.00">Player</text>
</g>
<!-- \\Db_config -->
<g id="node7" class="node"><title>\\Db_config</title>
<polygon fill="none" stroke="black" points="93,-52 17,-52 17,-16 93,-16 93,-52"/>
<text text-anchor="middle" x="55" y="-31.1" font-family="Courier,monospace" font-size="11.00">Db_config</text>
</g>
</g>
</svg>
